<?xml version="1.0" encoding="UTF-8" standalone="no"?>
<!-- Generator: Adobe Illustrator 16.0.0, SVG Export Plug-In . SVG Version: 6.00 Build 0)  -->

<svg
   xmlns:dc="http://purl.org/dc/elements/1.1/"
   xmlns:cc="http://creativecommons.org/ns#"
   xmlns:rdf="http://www.w3.org/1999/02/22-rdf-syntax-ns#"
   xmlns:svg="http://www.w3.org/2000/svg"
   xmlns="http://www.w3.org/2000/svg"
   xmlns:sodipodi="http://sodipodi.sourceforge.net/DTD/sodipodi-0.dtd"
   xmlns:inkscape="http://www.inkscape.org/namespaces/inkscape"
   version="1.1"
   id="Layer_1"
   x="0px"
   y="0px"
   width="648px"
   height="650px"
   viewBox="0 0 648 650"
   xml:space="preserve"
   inkscape:version="0.91 r13725"
   sodipodi:docname="favicon.svg"><metadata
     id="metadata13"><rdf:RDF><cc:Work
         rdf:about=""><dc:format>image/svg+xml</dc:format><dc:type
           rdf:resource="http://purl.org/dc/dcmitype/StillImage" /><dc:title></dc:title></cc:Work></rdf:RDF></metadata><defs
     id="defs11" /><sodipodi:namedview
     pagecolor="#ffffff"
     bordercolor="#666666"
     borderopacity="1"
     objecttolerance="10"
     gridtolerance="10"
     guidetolerance="10"
     inkscape:pageopacity="0"
     inkscape:pageshadow="2"
     inkscape:window-width="1158"
     inkscape:window-height="732"
     id="namedview9"
     showgrid="false"
     inkscape:zoom="0.36307692"
     inkscape:cx="425.52962"
     inkscape:cy="320.86864"
     inkscape:window-x="127"
     inkscape:window-y="63"
     inkscape:window-maximized="0"
     inkscape:current-layer="Layer_1" /><circle
     cx="325.49152"
     cy="323.50848"
     r="274.77499"
     id="circle3"
     style="fill:none;stroke:#000000;stroke-width:70" /><path
     d="M230.511,405.57c41.396,0,76.105-28.977,85.021-67.828h-41.715c-7.642,16.559-24.201,28.023-43.307,28.023  c-26.43,0-47.765-21.336-47.765-47.765c0-26.43,21.335-47.765,47.765-47.765c19.106,0,35.665,11.464,43.307,27.704h41.715  c-8.916-38.531-43.625-67.509-85.021-67.509c-48.402,0-87.569,39.168-87.569,87.57S182.109,405.57,230.511,405.57z"
     id="path5" /><path
     d="M420.038,405.57c41.396,0,76.105-28.977,85.021-67.828h-41.714c-7.644,16.559-24.202,28.023-43.307,28.023  c-26.432,0-47.767-21.336-47.767-47.765c0-26.43,21.335-47.765,47.767-47.765c19.104,0,35.663,11.464,43.307,27.704h41.714  c-8.915-38.531-43.625-67.509-85.021-67.509c-48.402,0-87.569,39.168-87.569,87.57S371.636,405.57,420.038,405.57z"
     id="path7" /></svg>